<svg width="32" height="32" viewBox="0 0 32 32" fill="none" xmlns="http://www.w3.org/2000/svg">
<path d="M6 29.3335C5.46667 29.3335 5 29.1335 4.6 28.7335C4.2 28.3335 4 27.8668 4 27.3335V9.66683C4 9.1335 4.2 8.66683 4.6 8.26683C5 7.86683 5.46667 7.66683 6 7.66683H9.66667C9.66667 5.91127 10.2556 4.41683 11.4333 3.1835C12.6111 1.95016 14.0778 1.3335 15.8333 1.3335C17.5889 1.3335 19.1111 1.95016 20.4 3.1835C21.6889 4.41683 22.3333 5.91127 22.3333 7.66683H26C26.5333 7.66683 27 7.86683 27.4 8.26683C27.8 8.66683 28 9.1335 28 9.66683V27.3335C28 27.8668 27.8 28.3335 27.4 28.7335C27 29.1335 26.5333 29.3335 26 29.3335H6ZM16 17.6668C17.7556 17.6668 19.2778 17.0224 20.5667 15.7335C21.8556 14.4446 22.5 12.9224 22.5 11.1668H20.5C20.5 12.3891 20.0556 13.4446 19.1667 14.3335C18.2778 15.2224 17.2222 15.6668 16 15.6668C14.7778 15.6668 13.7222 15.2224 12.8333 14.3335C11.9444 13.4446 11.5 12.3891 11.5 11.1668H9.5C9.5 12.9224 10.1444 14.4446 11.4333 15.7335C12.7222 17.0224 14.2444 17.6668 16 17.6668ZM11.6667 7.66683H20.3333C20.3333 6.44461 19.9167 5.41683 19.0833 4.5835C18.25 3.75016 17.2222 3.3335 16 3.3335C14.7778 3.3335 13.75 3.75016 12.9167 4.5835C12.0833 5.41683 11.6667 6.44461 11.6667 7.66683Z" fill="white"/>
</svg>
