<svg width="32" height="32" viewBox="0 0 32 32" fill="none" xmlns="http://www.w3.org/2000/svg">
<path d="M10.3974 2.6665H21.5974C25.8641 2.6665 29.3307 6.13317 29.3307 10.3998V21.5998C29.3307 23.6508 28.516 25.6178 27.0657 27.0681C25.6154 28.5184 23.6484 29.3332 21.5974 29.3332H10.3974C6.13073 29.3332 2.66406 25.8665 2.66406 21.5998V10.3998C2.66406 8.34883 3.47882 6.38183 4.9291 4.93154C6.37938 3.48126 8.34639 2.6665 10.3974 2.6665ZM10.1307 5.33317C8.85769 5.33317 7.63679 5.83888 6.73662 6.73906C5.83644 7.63923 5.33073 8.86013 5.33073 10.1332V21.8665C5.33073 24.5198 7.4774 26.6665 10.1307 26.6665H21.8641C23.1371 26.6665 24.358 26.1608 25.2582 25.2606C26.1583 24.3604 26.6641 23.1395 26.6641 21.8665V10.1332C26.6641 7.47984 24.5174 5.33317 21.8641 5.33317H10.1307ZM22.9974 7.33317C23.4394 7.33317 23.8633 7.50877 24.1759 7.82133C24.4885 8.13389 24.6641 8.55781 24.6641 8.99984C24.6641 9.44186 24.4885 9.86579 24.1759 10.1783C23.8633 10.4909 23.4394 10.6665 22.9974 10.6665C22.5554 10.6665 22.1314 10.4909 21.8189 10.1783C21.5063 9.86579 21.3307 9.44186 21.3307 8.99984C21.3307 8.55781 21.5063 8.13389 21.8189 7.82133C22.1314 7.50877 22.5554 7.33317 22.9974 7.33317ZM15.9974 9.33317C17.7655 9.33317 19.4612 10.0355 20.7114 11.2858C21.9617 12.536 22.6641 14.2317 22.6641 15.9998C22.6641 17.7679 21.9617 19.4636 20.7114 20.7139C19.4612 21.9641 17.7655 22.6665 15.9974 22.6665C14.2293 22.6665 12.5336 21.9641 11.2833 20.7139C10.0331 19.4636 9.33073 17.7679 9.33073 15.9998C9.33073 14.2317 10.0331 12.536 11.2833 11.2858C12.5336 10.0355 14.2293 9.33317 15.9974 9.33317ZM15.9974 11.9998C14.9365 11.9998 13.9191 12.4213 13.169 13.1714C12.4188 13.9216 11.9974 14.939 11.9974 15.9998C11.9974 17.0607 12.4188 18.0781 13.169 18.8283C13.9191 19.5784 14.9365 19.9998 15.9974 19.9998C17.0583 19.9998 18.0757 19.5784 18.8258 18.8283C19.576 18.0781 19.9974 17.0607 19.9974 15.9998C19.9974 14.939 19.576 13.9216 18.8258 13.1714C18.0757 12.4213 17.0583 11.9998 15.9974 11.9998Z" fill="white"/>
</svg>
